<?xml version="1.0" encoding="UTF-8" standalone="no"?>
<!-- Created with Inkscape (http://www.inkscape.org/) -->

<svg
   xmlns:dc="http://purl.org/dc/elements/1.1/"
   xmlns:cc="http://creativecommons.org/ns#"
   xmlns:rdf="http://www.w3.org/1999/02/22-rdf-syntax-ns#"
   xmlns:svg="http://www.w3.org/2000/svg"
   xmlns="http://www.w3.org/2000/svg"
   xmlns:xlink="http://www.w3.org/1999/xlink"
   xmlns:sodipodi="http://sodipodi.sourceforge.net/DTD/sodipodi-0.dtd"
   xmlns:inkscape="http://www.inkscape.org/namespaces/inkscape"
   sodipodi:docname="logo2.svg"
   inkscape:version="0.91 r13725"
   version="1.1"
   id="svg4792"
   viewBox="0 0 1000 1000"
   height="1000"
   width="1000">
  <sodipodi:namedview
     inkscape:snap-bbox-midpoints="true"
     inkscape:snap-bbox-edge-midpoints="false"
     inkscape:bbox-nodes="true"
     inkscape:bbox-paths="true"
     inkscape:snap-bbox="true"
     inkscape:guide-bbox="true"
     showguides="true"
     inkscape:window-maximized="1"
     inkscape:window-y="-8"
     inkscape:window-x="-8"
     inkscape:window-height="1017"
     inkscape:window-width="1920"
     units="px"
     showgrid="false"
     inkscape:current-layer="layer4"
     inkscape:document-units="px"
     inkscape:cy="246.78536"
     inkscape:cx="-854.24655"
     inkscape:zoom="0.17411011"
     inkscape:pageshadow="2"
     inkscape:pageopacity="0.0"
     borderopacity="1.0"
     bordercolor="#666666"
     pagecolor="#ffffff"
     id="base" />
  <defs
     id="defs4794">
    <linearGradient
       inkscape:collect="always"
       id="linearGradient6082">
      <stop
         style="stop-color:#000000;stop-opacity:1;"
         offset="0"
         id="stop6084" />
      <stop
         style="stop-color:#000000;stop-opacity:0;"
         offset="1"
         id="stop6086" />
    </linearGradient>
    <clipPath
       clipPathUnits="userSpaceOnUse"
       id="clipPath5523">
      <rect
         y="0"
         x="0"
         height="1000"
         width="1000"
         id="rect5525"
         style="fill:#4a97cd;fill-opacity:1;stroke:none;stroke-width:40;stroke-linejoin:miter;stroke-miterlimit:4;stroke-dasharray:none;stroke-opacity:1" />
    </clipPath>
    <linearGradient
       inkscape:collect="always"
       xlink:href="#linearGradient6082"
       id="linearGradient6088"
       x1="522.73682"
       y1="537.26422"
       x2="853.55371"
       y2="853.55542"
       gradientUnits="userSpaceOnUse" />
    <linearGradient
       inkscape:collect="always"
       xlink:href="#linearGradient6082"
       id="linearGradient6198"
       gradientUnits="userSpaceOnUse"
       x1="124.99998"
       y1="162.5"
       x2="1000"
       y2="1000" />
  </defs>
  <metadata
     id="metadata4797">
    <rdf:RDF>
      <cc:Work
         rdf:about="">
        <dc:format>image/svg+xml</dc:format>
        <dc:type
           rdf:resource="http://purl.org/dc/dcmitype/StillImage" />
        <dc:title />
      </cc:Work>
    </rdf:RDF>
  </metadata>
  <g
     transform="translate(0,-52.362161)"
     id="layer1"
     inkscape:groupmode="layer"
     inkscape:label="Background">
    <rect
       y="52.36216"
       x="0"
       height="1000"
       width="1000"
       id="rect5340"
       style="fill:#4a97cd;fill-opacity:1;stroke:none;stroke-width:40;stroke-linejoin:miter;stroke-miterlimit:4;stroke-dasharray:none;stroke-opacity:1" />
    <g
       id="g6999" />
  </g>
  <g
     style="display:inline"
     inkscape:label="Shadow"
     id="layer4"
     inkscape:groupmode="layer">
    <g
       style="fill:#1a1a1a;stroke:none"
       transform="matrix(0.12,0,0,0.1151999,124.39999,116.7632)"
       id="layer1-5">
      <g
         transform="matrix(1,0,0,1.000357,0,195.24041)"
         id="g5371"
         style="fill:#1a1a1a" />
    </g>
    <g
       id="g4568"
       clip-path="url(#clipPath5523)"
       style="opacity:0.20000001;fill-opacity:1;fill:url(#linearGradient6088)">
      <path
         style="font-style:normal;font-variant:normal;font-weight:normal;font-stretch:normal;font-size:medium;line-height:100%;font-family:COCOGOOSE;-inkscape-font-specification:COCOGOOSE;letter-spacing:0px;word-spacing:0px;fill:url(#linearGradient6198);fill-opacity:1;stroke:none;stroke-width:1px;stroke-linecap:butt;stroke-linejoin:miter;stroke-opacity:1;opacity:1"
         d="M 455.8418 162.50195 C 401.81859 162.51615 356.23961 162.8088 347.59961 163.45703 C 338.11961 164.14847 329.72 165.18552 329 165.64648 C 328.4 166.22269 324.79922 167.25973 321.19922 168.06641 C 302.47922 172.21509 278.24039 185.58311 262.40039 200.44922 C 245.36039 216.46773 234.32086 232.94605 226.88086 253.57422 C 220.85773 270.16842 220.12264 265.71606 219.78125 391.23828 L 171.19922 342.65625 L 155.7207 343.23242 C 141.6807 343.80862 139.88055 344.15413 135.56055 346.91992 C 132.44055 348.87902 129.68086 352.10722 127.88086 355.56445 L 125 361.0957 L 125 409.61133 L 125 458.12891 L 127.88086 464.00586 C 129.2901 466.80924 130.61366 469.12538 131.28711 469.79883 L 219.49219 558.00391 C 219.44635 648.18969 219.69723 704.79001 220.2793 708.89062 C 221.60894 718.25467 225.70104 726.53893 232.17773 733.01562 L 265.99609 766.83398 C 265.99594 767.97899 266 768.80336 266 770.08398 C 266 797.05041 267.2 805.69484 272 813.76172 C 273.95653 817.12404 276.43409 820.27979 279.26562 823.11133 L 986.37109 1530.2168 C 993.43854 1537.2842 1002.7168 1542.3382 1011.627 1543.5723 C 1020.987 1544.84 1063.467 1544.84 1072.707 1543.5723 C 1092.387 1540.9218 1107.8683 1526.4015 1110.9883 1507.8477 C 1111.7083 1503.699 1112.3066 1490.1003 1112.3066 1477.6543 L 1112.3066 1454.8359 L 1206.9883 1454.8359 L 1239.4766 1454.8359 L 1314.1543 1529.5137 C 1321.4514 1536.8108 1331.4578 1542.224 1341.5078 1543.5723 C 1351.5878 1544.9552 1391.4278 1544.9552 1401.5078 1543.5723 C 1415.3078 1541.7285 1428.5079 1532.6218 1435.5879 1520.291 C 1439.7879 1512.9155 1441.1074 1503.2359 1441.1074 1477.1914 C 1441.1074 1452.9907 1440.8677 1453.6836 1448.4277 1453.6836 C 1450.3477 1453.6836 1452.8684 1453.2228 1454.0684 1452.6465 C 1455.1484 1452.1856 1458.7472 1450.5724 1461.8672 1449.1895 C 1474.7072 1443.7732 1484.5481 1430.866 1486.8281 1416.6914 C 1487.9051 1409.8654 1487.9351 1258.399 1487.3867 1135.498 L 1535.9082 1184.0195 L 1547.668 1184.0195 C 1561.228 1183.9043 1568.6676 1182.5217 1572.2676 1179.4102 C 1573.5876 1178.1426 1575.1478 1177.1035 1575.5078 1177.1035 C 1575.9878 1177.1035 1577.5466 1174.4553 1579.2266 1171.1133 L 1582.1074 1165.2363 L 1582.1074 1116.7188 L 1582.1074 1068.2031 L 1579.2266 1062.6719 C 1578.1021 1060.5121 1576.6025 1058.4403 1574.875 1056.7129 L 1480.7109 962.55078 C 1475.5987 948.30955 1468.1682 933.84293 1461.2676 925.41602 C 1456.1134 919.22869 1448.9812 911.28002 1445.6133 907.91211 L 738.50781 200.80469 C 737.48474 199.78162 736.80838 199.18164 736.64062 199.18164 C 736.16062 199.18164 733.64 197.22279 731 194.80273 C 723.92 188.34923 707.23961 178.32255 695.59961 173.59766 C 686.23961 169.79471 680.72039 168.06663 664.40039 164.37891 C 659.37539 163.2265 545.88047 162.47832 455.8418 162.50195 z "
         id="path4572" />
      <path
         style="font-style:normal;font-variant:normal;font-weight:normal;font-stretch:normal;font-size:299.94003296px;line-height:100%;font-family:COCOGOOSE;-inkscape-font-specification:COCOGOOSE;letter-spacing:0px;word-spacing:0px;fill:url(#linearGradient6088);fill-opacity:1;stroke:none;stroke-width:1px;stroke-linecap:butt;stroke-linejoin:miter;stroke-opacity:1"
         d="M 455.8418 162.50195 C 401.81859 162.51615 356.23961 162.8088 347.59961 163.45703 C 338.11961 164.14847 329.72 165.18552 329 165.64648 C 328.4 166.22269 324.79922 167.25973 321.19922 168.06641 C 302.47922 172.21509 278.24039 185.58311 262.40039 200.44922 C 245.36039 216.46773 234.32086 232.94605 226.88086 253.57422 C 219.56086 273.74141 220.04055 259.56853 219.56055 490.05078 C 219.32055 621.19518 219.55955 703.82002 220.2793 708.89062 C 221.7193 719.03184 226.39984 727.90586 233.83984 734.58984 C 240.31984 740.3519 253.15969 746.57617 258.67969 746.57617 C 266.23969 746.57617 266 745.88335 266 770.08398 C 266 797.05041 267.2 805.69484 272 813.76172 C 278.84 825.51631 292.03953 834.73622 304.51953 836.46484 C 313.87953 837.73249 356.35961 837.73249 365.59961 836.46484 C 385.27961 833.81429 400.76086 819.29405 403.88086 800.74023 C 404.60086 796.59155 405.19922 782.99292 405.19922 770.54688 L 405.19922 747.72852 L 499.88086 747.72852 L 594.56055 747.72852 L 595.16016 775.15625 C 595.52016 792.09669 596.23922 804.19711 597.19922 807.07812 C 601.87922 821.36802 618.08039 834.27526 634.40039 836.46484 C 644.48039 837.84773 684.32039 837.84773 694.40039 836.46484 C 708.20039 834.62098 721.40047 825.51439 728.48047 813.18359 C 732.68047 805.80816 734 796.12848 734 770.08398 C 734 745.88335 733.76031 746.57617 741.32031 746.57617 C 743.24031 746.57617 745.76094 746.11527 746.96094 745.53906 C 748.04094 745.07809 751.63977 743.46492 754.75977 742.08203 C 767.59977 736.6657 777.4407 723.75864 779.7207 709.58398 C 781.5207 698.17511 780.43953 281.34818 778.51953 272.35938 C 774.67953 254.03603 763.88016 230.17843 754.16016 218.30859 C 747.44016 210.24171 737.36064 199.18164 736.64062 199.18164 C 736.16062 199.18164 733.64 197.22279 731 194.80273 C 723.92 188.34923 707.23961 178.32255 695.59961 173.59766 C 686.23961 169.79471 680.72039 168.06663 664.40039 164.37891 C 659.37539 163.2265 545.88047 162.47832 455.8418 162.50195 z M 405.19922 206.0957 L 500 206.0957 L 594.80078 206.0957 L 594.80078 229.14453 L 594.80078 252.19141 L 500 252.19141 L 405.19922 252.19141 L 405.19922 229.14453 L 405.19922 206.0957 z M 265.40039 296.55859 L 500 296.55859 L 734.59961 296.55859 L 734.96094 432.31445 L 735.19922 567.95312 L 500 567.95312 L 264.80078 567.95312 L 265.03906 432.31445 L 265.40039 296.55859 z M 500.28125 320.00195 C 490.90812 320.00195 481.91039 321.57719 473.28711 324.72656 C 464.75757 327.87593 457.21158 332.28427 450.65039 337.95312 C 444.18293 343.62201 438.98163 350.41557 435.04492 358.33398 C 431.20194 366.16242 429.2793 374.80189 429.2793 384.25 L 429.2793 388.70312 C 429.2793 389.96287 429.70134 391.22267 430.54492 392.48242 C 431.48223 393.65218 433.12352 394.23633 435.4668 394.23633 L 459.78906 394.23633 C 461.28876 394.23633 462.97694 394.28113 464.85156 394.37109 C 466.81992 394.46109 468.64682 394.41629 470.33398 394.23633 C 472.02115 394.05636 473.42796 393.65136 474.55273 393.02148 C 475.67751 392.30163 476.23828 391.17618 476.23828 389.64648 L 476.23828 386.54297 C 476.23828 383.57356 476.89479 380.69569 478.20703 377.90625 C 479.51927 375.1168 481.30123 372.64199 483.55078 370.48242 C 485.80033 368.32285 488.37753 366.61327 491.2832 365.35352 C 494.18887 364.09377 497.235 363.46289 500.42188 363.46289 C 503.60874 363.46289 506.65488 364.09377 509.56055 365.35352 C 512.55995 366.52329 515.13715 368.1394 517.29297 370.20898 C 519.54252 372.27857 521.32448 374.66577 522.63672 377.36523 C 523.94896 380.06469 524.60352 382.85496 524.60352 385.73438 C 524.60352 389.96353 523.85517 393.65141 522.35547 396.80078 C 520.85577 399.86017 518.83934 402.65042 516.30859 405.16992 C 513.77785 407.59943 510.91928 409.89316 507.73242 412.05273 C 504.54556 414.2123 501.26496 416.50798 497.89062 418.9375 C 494.5163 421.36702 490.96492 424.03278 487.9082 427.03516 C 484.63649 430.24871 481.67526 433.51331 479.05078 437.5625 C 478.30093 438.73226 477.69131 439.94728 477.22266 441.20703 C 476.754 442.46678 476.37885 444.08681 476.09766 446.06641 C 475.81646 448.04602 475.58395 450.56561 475.39648 453.625 C 475.30278 456.68438 475.25586 460.59619 475.25586 465.36523 C 475.25586 467.07489 475.81663 468.6073 476.94141 469.95703 C 478.06618 471.30676 479.66056 471.98242 481.72266 471.98242 L 514.62305 471.98242 C 516.8726 471.98242 518.65261 471.84611 519.96484 471.57617 C 521.37081 471.30622 522.40247 470.6773 523.05859 469.6875 C 523.80844 468.60771 524.27543 467.03247 524.46289 464.96289 C 524.74408 462.8933 524.88477 460.10304 524.88477 456.59375 C 524.88477 452.54456 526.01022 449.17016 528.25977 446.4707 C 530.50932 443.77124 533.32099 441.25359 536.69531 438.91406 C 540.16337 436.48455 543.86602 434.00973 547.80273 431.49023 C 551.73945 428.88075 555.39521 425.64071 558.76953 421.77148 C 562.23759 417.90226 565.09615 413.13371 567.3457 407.46484 C 569.59525 401.70599 570.7207 394.5522 570.7207 386.00391 C 570.7207 376.5558 568.84496 367.82675 565.0957 359.81836 C 561.44018 351.71998 556.37957 344.74532 549.91211 338.89648 C 543.53838 332.95767 536.08618 328.32542 527.55664 324.99609 C 519.0271 321.66676 509.93557 320.00195 500.28125 320.00195 z M 171.19922 342.65625 L 155.7207 343.23242 C 141.6807 343.80862 139.88055 344.15413 135.56055 346.91992 C 132.44055 348.87902 129.68086 352.10722 127.88086 355.56445 L 125 361.0957 L 125 409.61133 L 125 458.12891 L 127.88086 464.00586 C 129.56086 467.34785 131.11961 469.99609 131.59961 469.99609 C 131.95961 469.99609 133.52094 471.03508 134.96094 472.30273 C 136.40094 473.57038 139.51906 475.06832 142.03906 475.64453 C 144.55906 476.22073 152.12094 476.68162 158.96094 476.79688 L 171.19922 476.91211 L 171.19922 409.83984 L 171.19922 342.65625 z M 828.80078 342.65625 L 828.80078 409.83984 L 828.80078 476.91211 L 840.56055 476.91211 C 854.12055 476.79687 861.56016 475.41424 865.16016 472.30273 C 866.48016 471.03508 868.04039 469.99609 868.40039 469.99609 C 868.88039 469.99609 870.43914 467.34785 872.11914 464.00586 L 875 458.12891 L 875 409.61133 L 875 361.0957 L 872.11914 355.56445 C 870.31914 352.10722 867.55945 348.87902 864.43945 346.91992 C 860.11945 344.15413 858.3193 343.80862 844.2793 343.23242 L 828.80078 342.65625 z M 481.72266 500.19141 C 479.66056 500.19141 478.11307 500.72881 477.08203 501.80859 C 476.05099 502.88838 475.53711 504.32927 475.53711 506.12891 L 475.53711 538.79297 C 475.53711 542.93214 477.59848 545.00195 481.72266 545.00195 L 518.83984 545.00195 C 520.99566 545.00195 522.59005 544.37303 523.62109 543.11328 C 524.74587 541.85353 525.30664 540.41264 525.30664 538.79297 L 525.30664 506.12891 C 525.30664 504.32927 524.60519 502.88838 523.19922 501.80859 C 521.88698 500.72881 520.43327 500.19141 518.83984 500.19141 L 481.72266 500.19141 z M 311.85547 611.85938 C 315.41047 611.80178 318.91984 612.37786 323.83984 613.58789 C 337.51984 616.92988 349.52063 626.38013 355.64062 638.82617 C 358.64062 645.04919 359 647.00718 359 657.83984 C 359 668.90299 358.63953 670.5172 355.51953 676.85547 C 349.15953 689.18627 338.47961 698.1756 326.59961 701.17188 C 319.15961 703.13098 304.39922 703.13098 297.19922 701.17188 C 286.03922 698.17561 274.88086 688.49483 268.88086 676.74023 C 265.76086 670.51721 265.40039 668.90299 265.40039 657.83984 C 265.40039 647.00718 265.76063 645.04917 268.64062 639.17188 C 275.00063 626.49536 285.79961 617.62131 299.59961 613.93359 C 304.69961 612.60832 308.30047 611.91699 311.85547 611.85938 z M 687.4707 611.87305 C 691.1007 611.85865 694.7593 612.54875 700.2793 613.93164 C 712.6393 617.04315 723.79984 625.11077 728.83984 634.67578 C 730.03984 636.9806 731.3607 639.05467 731.7207 639.40039 C 733.7607 641.12901 735.44094 651.73192 734.96094 660.375 C 734.60094 667.98091 733.75914 671.32195 731.11914 676.73828 C 725.23914 688.37763 714.32078 697.82793 702.80078 701.16992 C 692.00078 704.28143 669.79953 702.32254 664.51953 697.71289 C 663.31953 696.67572 661.88016 695.86914 661.16016 695.86914 C 658.64016 695.86914 647.59937 683.19179 644.35938 676.62305 C 641.35938 670.63051 641 668.67251 641 657.83984 C 641 646.43097 641.24094 645.27776 644.96094 638.24805 C 651.68094 625.2258 660.91984 617.73459 674.83984 614.04688 C 680.23984 612.60636 683.8407 611.88745 687.4707 611.87305 z "
         id="path4166" />
    </g>
  </g>
  <g
     style="display:inline"
     inkscape:label="Icon"
     id="layer3"
     inkscape:groupmode="layer">
    <g
       transform="matrix(0.9375,0,0,0.89999921,31.249984,2.8747446)"
       id="g4521">
      <path
         style="font-style:normal;font-variant:normal;font-weight:normal;font-stretch:normal;font-size:299.94003296px;line-height:100%;font-family:COCOGOOSE;-inkscape-font-specification:COCOGOOSE;letter-spacing:0px;word-spacing:0px;fill:#ffffff;fill-opacity:1;stroke:none;stroke-width:1px;stroke-linecap:butt;stroke-linejoin:miter;stroke-opacity:1"
         d="m 455.8418,162.5 c -54.02321,0.0142 -99.60219,0.30685 -108.24219,0.95508 -9.48,0.69144 -17.87961,1.72849 -18.59961,2.18945 -0.6,0.57621 -4.20078,1.61324 -7.80078,2.41992 -18.72,4.14868 -42.95883,17.51671 -58.79883,32.38282 -17.04,16.01851 -28.07953,32.49683 -35.51953,53.125 -7.32,20.16719 -6.84031,5.99431 -7.32031,236.47656 -0.24,131.1444 -0.001,213.77119 0.71875,218.84179 1.44,10.14122 6.12054,19.01524 13.56054,25.69922 6.48,5.76206 19.31985,11.98438 24.83985,11.98438 7.56,0 7.32031,-0.69087 7.32031,23.50976 0,26.96643 1.2,35.60891 6,43.67579 6.84,11.75459 20.03953,20.9745 32.51953,22.70312 9.36,1.26765 51.84008,1.26765 61.08008,0 19.68,-2.65055 35.16125,-17.17079 38.28125,-35.72461 0.72,-4.14868 1.31836,-17.74732 1.31836,-30.19336 l 0,-22.81836 94.68164,0 94.67969,0 0.59961,27.42774 c 0.36,16.94044 1.07906,29.04084 2.03906,31.92187 4.68,14.2899 20.88117,27.19714 37.20117,29.38672 10.08,1.38289 49.92,1.38289 60,0 13.8,-1.84386 27.00008,-10.9485 34.08008,-23.2793 4.2,-7.37543 5.51953,-17.05511 5.51953,-43.09961 0,-24.20063 -0.23969,-23.50976 7.32031,-23.50976 1.92,0 4.44063,-0.4609 5.64063,-1.03711 1.08,-0.46097 4.67883,-2.07414 7.79883,-3.45703 12.84,-5.41633 22.68093,-18.32339 24.96093,-32.49805 1.8,-11.40887 0.71883,-428.2358 -1.20117,-437.22461 -3.84,-18.32334 -14.63937,-42.17899 -24.35937,-54.04883 -6.72,-8.06688 -16.79954,-19.1289 -17.51954,-19.1289 -0.48,0 -3.00062,-1.95885 -5.64062,-4.37891 -7.08,-6.4535 -23.76039,-16.48019 -35.40039,-21.20508 -9.36,-3.80295 -14.87922,-5.53103 -31.19922,-9.21875 -5.025,-1.15241 -118.51992,-1.90058 -208.55859,-1.87695 z m -50.64258,43.59375 94.80078,0 94.80078,0 0,23.04883 0,23.04687 -94.80078,0 -94.80078,0 0,-23.04687 0,-23.04883 z m -139.79883,90.46484 234.59961,0 234.59961,0 0.36133,135.75391 0.23828,135.63867 -235.19922,0 -235.19922,0 0.23828,-135.63867 0.36133,-135.75391 z M 500.28125,320 c -9.37313,0 -18.37086,1.57524 -26.99414,4.72461 -8.52954,3.14937 -16.07553,7.5577 -22.63672,13.22656 -6.46746,5.66887 -11.66876,12.46245 -15.60547,20.38086 -3.84298,7.82844 -5.76562,16.46791 -5.76562,25.91602 l 0,4.45312 c 0,1.25975 0.42204,2.51955 1.26562,3.7793 0.93731,1.16976 2.5786,1.75391 4.92188,1.75391 l 24.32226,0 c 1.4997,0 3.18788,0.0448 5.0625,0.13476 1.96836,0.09 3.79526,0.0452 5.48242,-0.13476 1.68717,-0.17997 3.09398,-0.58497 4.21875,-1.21485 1.12478,-0.71985 1.68555,-1.84335 1.68555,-3.37305 l 0,-3.10546 c 0,-2.96941 0.65651,-5.84728 1.96875,-8.63672 1.31224,-2.78945 3.0942,-5.26426 5.34375,-7.42383 2.24955,-2.15957 4.82675,-3.86916 7.73242,-5.12891 2.90567,-1.25975 5.95181,-1.89062 9.13868,-1.89062 3.18686,0 6.233,0.63087 9.13867,1.89062 2.9994,1.16977 5.5766,2.78784 7.73242,4.85742 2.24955,2.06959 4.03151,4.45484 5.34375,7.1543 1.31224,2.69946 1.9668,5.48972 1.9668,8.36914 0,4.22916 -0.74835,7.91704 -2.24805,11.06641 -1.4997,3.05939 -3.51613,5.84964 -6.04688,8.36914 -2.53074,2.42951 -5.38931,4.72324 -8.57617,6.88281 -3.18686,2.15957 -6.46747,4.45525 -9.8418,6.88477 -3.37432,2.42952 -6.70182,5.12825 -9.98242,8.09765 -3.28059,2.96941 -6.23294,6.47816 -8.85742,10.52735 -0.74985,1.16976 -1.35947,2.38478 -1.82812,3.64453 -0.46866,1.25975 -0.84381,2.87977 -1.125,4.85937 -0.2812,1.97961 -0.51371,4.49921 -0.70118,7.5586 -0.0937,3.05938 -0.14062,6.97314 -0.14062,11.74218 0,1.70966 0.56077,3.24012 1.68555,4.58985 1.12477,1.34973 2.71915,2.02539 4.78125,2.02539 l 32.90039,0 c 2.24955,0 4.02956,-0.13631 5.34179,-0.40625 1.40597,-0.26995 2.43763,-0.89887 3.09375,-1.88867 0.74985,-1.07979 1.21684,-2.65503 1.4043,-4.72461 0.28119,-2.06959 0.42188,-4.85985 0.42188,-8.36914 0,-4.04919 1.12545,-7.42359 3.375,-10.12305 2.24955,-2.69946 5.06122,-5.21711 8.43554,-7.55664 3.46806,-2.42951 7.17071,-4.90433 11.10742,-7.42383 3.93672,-2.60948 7.59248,-5.84952 10.9668,-9.71875 3.46806,-3.86922 6.32662,-8.63777 8.57617,-14.30664 2.24955,-5.75885 3.375,-12.91265 3.375,-21.46094 0,-9.44811 -1.87574,-18.17715 -5.625,-26.18554 -3.65552,-8.09838 -8.71613,-15.07109 -15.18359,-20.91993 -6.37373,-5.93881 -13.82593,-10.57301 -22.35547,-13.90234 C 519.0271,321.66481 509.93557,320 500.28125,320 Z m -329.08203,22.6543 -15.47852,0.57617 c -14.04,0.5762 -15.84015,0.92171 -20.16015,3.6875 -3.12,1.9591 -5.87969,5.1873 -7.67969,8.64453 L 125,361.09375 l 0,48.51563 0,48.51757 2.88086,5.87696 c 1.68,3.34199 3.23875,5.99218 3.71875,5.99218 0.36,0 1.92133,1.03704 3.36133,2.30469 1.44,1.26765 4.55812,2.76559 7.07812,3.3418 2.52,0.5762 10.08188,1.0371 16.92188,1.15234 l 12.23828,0.11524 0,-67.07032 0,-67.18554 z m 657.60156,0 0,67.18554 0,67.07032 11.75977,0 c 13.56,-0.11524 20.99961,-1.49787 24.59961,-4.60938 1.32,-1.26765 2.88023,-2.30469 3.24023,-2.30469 0.48,0 2.03875,-2.65019 3.71875,-5.99218 L 875,458.12695 l 0,-48.51757 0,-48.51563 -2.88086,-5.53125 c -1.8,-3.45723 -4.55969,-6.68543 -7.67969,-8.64453 -4.32,-2.76579 -6.12015,-3.1113 -20.16015,-3.6875 L 828.80078,342.6543 Z M 481.72266,500.18945 c -2.0621,0 -3.60959,0.53936 -4.64063,1.61914 -1.03104,1.07979 -1.54492,2.51872 -1.54492,4.31836 l 0,32.66407 c 0,4.13917 2.06137,6.20898 6.18555,6.20898 l 37.11718,0 c 2.15582,0 3.75021,-0.62892 4.78125,-1.88867 1.12478,-1.25975 1.68555,-2.70064 1.68555,-4.32031 l 0,-32.66407 c 0,-1.79964 -0.70145,-3.23857 -2.10742,-4.31836 -1.31224,-1.07978 -2.76595,-1.61914 -4.35938,-1.61914 l -37.11718,0 z M 311.85547,611.85742 c 3.555,-0.0576 7.06437,0.51849 11.98437,1.72852 13.68,3.34199 25.68078,12.79224 31.80078,25.23828 3,6.22302 3.35938,8.18296 3.35938,19.01562 0,11.06315 -0.36047,12.67541 -3.48047,19.01368 -6.36,12.3308 -17.03992,21.32013 -28.91992,24.3164 -7.44,1.9591 -22.20039,1.9591 -29.40039,0 -11.16,-2.99627 -22.31836,-12.67704 -28.31836,-24.43164 -3.12,-6.22302 -3.48047,-7.83529 -3.48047,-18.89844 0,-10.83266 0.36024,-12.79262 3.24023,-18.66992 6.36001,-12.67652 17.15899,-21.55056 30.95899,-25.23828 5.1,-1.32527 8.70086,-2.0166 12.25586,-2.07422 z m 375.61523,0.0156 c 3.63,-0.0144 7.2886,0.6757 12.8086,2.05859 12.36,3.11151 23.52054,11.17913 28.56054,20.74414 1.2,2.30482 2.52086,4.37889 2.88086,4.72461 2.04,1.72862 3.72024,12.33153 3.24024,20.97461 -0.36,7.60591 -1.2018,10.94695 -3.8418,16.36328 -5.88,11.63935 -16.79836,21.08965 -28.31836,24.43164 -10.8,3.11151 -33.00125,1.15262 -38.28125,-3.45703 -1.2,-1.03717 -2.63937,-1.84375 -3.35937,-1.84375 -2.52,0 -13.56079,-12.67735 -16.80078,-19.24609 -3,-5.99254 -3.35938,-7.95054 -3.35938,-18.78321 0,-11.40887 0.24094,-12.56208 3.96094,-19.59179 6.72,-13.02225 15.9589,-20.51346 29.8789,-24.20117 5.4,-1.44052 9.00086,-2.15943 12.63086,-2.17383 z"
         transform="matrix(1.0666667,0,0,1.1111111,-33.333333,-3.1934014)"
         id="path4523"
         inkscape:connector-curvature="0" />
      <g
         style="fill:#ffffff;stroke:none"
         transform="matrix(0.128,0,0,0.128,99.36,126.54252)"
         id="g4525">
        <g
           transform="matrix(1,0,0,1.000357,0,195.24041)"
           id="g4527" />
      </g>
    </g>
  </g>
</svg>
